<svg xmlns="http://www.w3.org/2000/svg" xmlns:xlink="http://www.w3.org/1999/xlink" width="1080" zoomAndPan="magnify" viewBox="0 0 810 809.999993" height="1080" preserveAspectRatio="xMidYMid meet" version="1.0"><defs><g/><clipPath id="e106cbe80a"><path d="M 121.691406 71.699219 L 681 71.699219 L 681 560.597656 L 121.691406 560.597656 Z M 121.691406 71.699219 " clip-rule="nonzero"/></clipPath><clipPath id="bf01b7063f"><path d="M 401.0625 71.699219 L 680.433594 560.597656 L 121.691406 560.597656 Z M 401.0625 71.699219 " clip-rule="nonzero"/></clipPath><clipPath id="dfb8ec1959"><path d="M 162 80 L 512 80 L 512 663 L 162 663 Z M 162 80 " clip-rule="nonzero"/></clipPath><clipPath id="4efafb7dbe"><path d="M 470.039062 80.980469 L 511.230469 103.628906 L 203.800781 662.800781 L 162.609375 640.152344 Z M 470.039062 80.980469 " clip-rule="nonzero"/></clipPath><clipPath id="94b867b0ab"><path d="M 470.039062 80.980469 L 511.230469 103.628906 L 203.863281 662.6875 L 162.671875 640.039062 Z M 470.039062 80.980469 " clip-rule="nonzero"/></clipPath><clipPath id="31a40915ec"><path d="M 312.96875 310.242188 L 634.671875 310.242188 L 634.671875 591.320312 L 312.96875 591.320312 Z M 312.96875 310.242188 " clip-rule="nonzero"/></clipPath><clipPath id="e20db19f78"><path d="M 473.585938 310.242188 L 634.203125 591.320312 L 312.96875 591.320312 Z M 473.585938 310.242188 " clip-rule="nonzero"/></clipPath><clipPath id="2692d49a66"><path d="M 374.753906 387.640625 L 572.707031 387.640625 L 572.707031 560.597656 L 374.753906 560.597656 Z M 374.753906 387.640625 " clip-rule="nonzero"/></clipPath><clipPath id="853be8f575"><path d="M 473.585938 387.640625 L 572.417969 560.597656 L 374.753906 560.597656 Z M 473.585938 387.640625 " clip-rule="nonzero"/></clipPath><clipPath id="427460822c"><path d="M 397.125 430.179688 L 494.941406 430.179688 L 494.941406 515.640625 L 397.125 515.640625 Z M 397.125 430.179688 " clip-rule="nonzero"/></clipPath><clipPath id="1d4ccdbf97"><path d="M 445.960938 430.179688 L 494.796875 515.640625 L 397.125 515.640625 Z M 445.960938 430.179688 " clip-rule="nonzero"/></clipPath></defs><g clip-path="url(#e106cbe80a)"><g clip-path="url(#bf01b7063f)"><path fill="#ffffff" d="M 121.691406 71.699219 L 681.25 71.699219 L 681.25 560.597656 L 121.691406 560.597656 Z M 121.691406 71.699219 " fill-opacity="1" fill-rule="nonzero"/></g></g><g clip-path="url(#dfb8ec1959)"><g clip-path="url(#4efafb7dbe)"><g clip-path="url(#94b867b0ab)"><path fill="#004aad" d="M 470.039062 80.980469 L 511.230469 103.628906 L 203.890625 662.640625 L 162.695312 639.992188 Z M 470.039062 80.980469 " fill-opacity="1" fill-rule="nonzero"/></g></g></g><g clip-path="url(#31a40915ec)"><g clip-path="url(#e20db19f78)"><path fill="#004aad" d="M 312.96875 310.242188 L 634.671875 310.242188 L 634.671875 591.320312 L 312.96875 591.320312 Z M 312.96875 310.242188 " fill-opacity="1" fill-rule="nonzero"/></g></g><g clip-path="url(#2692d49a66)"><g clip-path="url(#853be8f575)"><path fill="#ffffff" d="M 374.753906 387.640625 L 572.707031 387.640625 L 572.707031 560.597656 L 374.753906 560.597656 Z M 374.753906 387.640625 " fill-opacity="1" fill-rule="nonzero"/></g></g><g clip-path="url(#427460822c)"><g clip-path="url(#1d4ccdbf97)"><path fill="#004aad" d="M 397.125 430.179688 L 494.941406 430.179688 L 494.941406 515.640625 L 397.125 515.640625 Z M 397.125 430.179688 " fill-opacity="1" fill-rule="nonzero"/></g></g><g fill="#ffffff" fill-opacity="1"><g transform="translate(109.659255, 692.482665)"><g><path d="M 2.0625 0 L 22.9375 0 L 26.542969 -9.921875 L 57.082031 -9.921875 L 60.820312 0 L 81.566406 0 L 42.78125 -95.484375 L 40.847656 -95.484375 Z M 33.246094 -27.1875 L 41.878906 -51.15625 L 50.253906 -27.1875 Z M 33.246094 -27.1875 "/></g></g></g><g fill="#ffffff" fill-opacity="1"><g transform="translate(279.361589, 692.482665)"><g><path d="M 76.800781 -5.667969 L 76.800781 -46.132812 L 58.113281 -46.132812 L 58.113281 -18.425781 C 56.441406 -18.167969 54.636719 -17.910156 52.960938 -17.910156 C 17.394531 -17.910156 15.71875 -72.933594 52.960938 -74.222656 C 62.753906 -74.480469 68.679688 -72.417969 72.289062 -70.871094 L 74.480469 -89.554688 C 72.804688 -90.070312 63.914062 -93.292969 52.960938 -92.90625 C -10.953125 -90.585938 -7.859375 0.515625 52.960938 0.515625 C 61.722656 0.515625 69.710938 -1.675781 76.800781 -5.667969 Z M 76.800781 -5.667969 "/></g></g></g><g fill="#ffffff" fill-opacity="1"><g transform="translate(451.640878, 692.482665)"><g><path d="M 56.183594 0 L 77.058594 0 L 55.667969 -38.011719 C 82.726562 -45.875 79.503906 -92.132812 46.644531 -92.132812 L 10.308594 -92.132812 L 10.308594 0 L 28.734375 0 L 28.734375 -35.179688 L 37.625 -35.179688 Z M 28.734375 -53.089844 L 28.734375 -73.707031 L 44.972656 -73.707031 C 57.46875 -73.707031 57.46875 -53.089844 44.972656 -53.089844 Z M 28.734375 -53.089844 "/></g></g></g><g fill="#ffffff" fill-opacity="1"><g transform="translate(616.189287, 692.482665)"><g><path d="M 2.0625 0 L 22.9375 0 L 26.542969 -9.921875 L 57.082031 -9.921875 L 60.820312 0 L 81.566406 0 L 42.78125 -95.484375 L 40.847656 -95.484375 Z M 33.246094 -27.1875 L 41.878906 -51.15625 L 50.253906 -27.1875 Z M 33.246094 -27.1875 "/></g></g></g></svg>