<?xml version="1.0" encoding="UTF-8"?>
<svg version="1.1" xmlns="http://www.w3.org/2000/svg" width="1080" height="1080">
<path d="M0 0 C356.4 0 712.8 0 1080 0 C1080 356.4 1080 712.8 1080 1080 C723.6 1080 367.2 1080 0 1080 C0 723.6 0 367.2 0 0 Z " fill="#FEFEFE" transform="translate(0,0)"/>
<path d="M0 0 C2.61712286 2.36271395 4.17321749 4.83435853 5.86328125 7.91796875 C6.41306641 8.91248047 6.96285156 9.90699219 7.52929688 10.93164062 C8.11775391 12.00607422 8.70621094 13.08050781 9.3125 14.1875 C10.57760754 16.47366409 11.84458199 18.75879592 13.11328125 21.04296875 C13.43660431 21.62537323 13.75992737 22.20777771 14.0930481 22.80783081 C17.31083583 28.58858251 20.64608171 34.29753233 24 40 C29.37270626 49.14868956 34.59077544 58.37404962 39.75 67.64453125 C43.74964452 74.81353695 47.84348044 81.92092763 52 89 C57.37196793 98.14913289 62.59076525 107.37403131 67.75 116.64453125 C71.74964452 123.81353695 75.84348044 130.92092763 80 138 C85.37196793 147.14913289 90.59076525 156.37403131 95.75 165.64453125 C99.74964452 172.81353695 103.84348044 179.92092763 108 187 C113.37196793 196.14913289 118.59076525 205.37403131 123.75 214.64453125 C127.74964452 221.81353695 131.84348044 228.92092763 136 236 C141.37196793 245.14913289 146.59076525 254.37403131 151.75 263.64453125 C155.74964452 270.81353695 159.84348044 277.92092763 164 285 C169.37196793 294.14913289 174.59076525 303.37403131 179.75 312.64453125 C183.74964452 319.81353695 187.84348044 326.92092763 192 334 C197.37196793 343.14913289 202.59076525 352.37403131 207.75 361.64453125 C211.74964452 368.81353695 215.84348044 375.92092763 220 383 C225.37196793 392.14913289 230.59076525 401.37403131 235.75 410.64453125 C239.74964452 417.81353695 243.84348044 424.92092763 248 432 C253.37196793 441.14913289 258.59076525 450.37403131 263.75 459.64453125 C267.74964452 466.81353695 271.84348044 473.92092763 276 481 C281.37196793 490.14913289 286.59076525 499.37403131 291.75 508.64453125 C295.74964452 515.81353695 299.84348044 522.92092763 304 530 C309.37196793 539.14913289 314.59076525 548.37403131 319.75 557.64453125 C324.30744431 565.81334327 329.00163252 573.89524043 333.73901367 581.96069336 C338.6341521 590.31735966 343.36435524 598.7605879 348.07080078 607.22460938 C351.76203465 613.84453895 355.54458366 620.39396955 359.51293945 626.85180664 C362 630.90837725 362 630.90837725 362 632 C348.1627867 632.5630352 334.32736746 632.98335356 320.48101616 633.24349213 C314.04952967 633.36841139 307.62576795 633.53750079 301.19873047 633.81054688 C258.33695967 635.58457949 258.33695967 635.58457949 250.37316895 629.76831055 C245.09845668 624.30217049 242.68375964 618.13329203 240.79058838 610.8684082 C239.74982844 607.09232899 238.14167742 604.33794485 236.0625 601.03125 C235.03988285 599.18848878 234.01899021 597.34476928 233 595.5 C228.42684114 587.27661004 223.76425834 579.11412749 219 571 C213.62803207 561.85086711 208.40923475 552.62596869 203.25 543.35546875 C199.25035548 536.18646305 195.15651956 529.07907237 191 522 C185.62803207 512.85086711 180.40923475 503.62596869 175.25 494.35546875 C171.25035548 487.18646305 167.15651956 480.07907237 163 473 C157.62803207 463.85086711 152.40923475 454.62596869 147.25 445.35546875 C143.25035548 438.18646305 139.15651956 431.07907237 135 424 C129.62803207 414.85086711 124.40923475 405.62596869 119.25 396.35546875 C115.25035548 389.18646305 111.15651956 382.07907237 107 375 C101.62803207 365.85086711 96.40923475 356.62596869 91.25 347.35546875 C87.25035548 340.18646305 83.15651956 333.07907237 79 326 C73.62803207 316.85086711 68.40923475 307.62596869 63.25 298.35546875 C59.25035548 291.18646305 55.15651956 284.07907237 51 277 C46.23570155 268.8858042 41.57605753 260.72181413 37 252.5 C32.18181766 243.84990069 27.29256667 235.24552907 22.3125 226.6875 C21.72404297 225.67300781 21.13558594 224.65851563 20.52929688 223.61328125 C19.97951172 222.67226563 19.42972656 221.73125 18.86328125 220.76171875 C18.38157471 219.93631592 17.89986816 219.11091309 17.40356445 218.26049805 C16.04456694 216.07177688 14.57866973 214.03438626 13 212 C5.87922461 224.10073889 -1.17272039 236.23086857 -8 248.5 C-13.13626659 257.7293412 -18.40212563 266.87237021 -23.75 275.98046875 C-27.92243959 283.1052819 -31.98495244 290.28546141 -36 297.5 C-41.13631389 306.72931402 -46.40212535 315.87236973 -51.75 324.98046875 C-55.92243959 332.1052819 -59.98495244 339.28546141 -64 346.5 C-69.13631389 355.72931402 -74.40212535 364.87236973 -79.75 373.98046875 C-83.92243959 381.1052819 -87.98495244 388.28546141 -92 395.5 C-97.13631389 404.72931402 -102.40212535 413.87236973 -107.75 422.98046875 C-111.92243959 430.1052819 -115.98495244 437.28546141 -120 444.5 C-125.13631389 453.72931402 -130.40212535 462.87236973 -135.75 471.98046875 C-139.92243959 479.1052819 -143.98495244 486.28546141 -148 493.5 C-153.13631389 502.72931402 -158.40212535 511.87236973 -163.75 520.98046875 C-167.92243959 528.1052819 -171.98495244 535.28546141 -176 542.5 C-181.13631389 551.72931402 -186.40212535 560.87236973 -191.75 569.98046875 C-196.51979659 578.1253223 -201.13523535 586.35032178 -205.72363281 594.59838867 C-210.55548849 603.26148847 -215.52882671 611.83720112 -220.55859375 620.38671875 C-221.38810547 621.79824219 -221.38810547 621.79824219 -222.234375 623.23828125 C-222.96479004 624.4763855 -222.96479004 624.4763855 -223.70996094 625.73950195 C-224.87844108 627.78699582 -225.94571569 629.89143139 -227 632 C-266.6 632 -306.2 632 -347 632 C-343.17326375 624.3465275 -339.32200031 616.89257111 -335.0625 609.5 C-330.00230761 600.63709481 -325.11002928 591.69424242 -320.3125 582.6875 C-315.51860658 573.69247242 -310.67454424 564.73204127 -305.69921875 555.8359375 C-302.23109414 549.63458455 -298.80518678 543.40988409 -295.375 537.1875 C-293.99092222 534.67706304 -292.60679545 532.16665309 -291.22265625 529.65625 C-290.87447845 529.02470001 -290.52630066 528.39315002 -290.16757202 527.74246216 C-287.73844855 523.33704325 -285.30557182 518.93371172 -282.87109375 514.53125 C-281.51794685 512.08348928 -280.16510023 509.63556285 -278.8125 507.1875 C-278.31256027 506.28271408 -278.31256027 506.28271408 -277.80252075 505.35964966 C-273.26177662 497.13834606 -268.76854052 488.89258162 -264.3125 480.625 C-260.17390268 472.94645444 -255.94394616 465.32849103 -251.625 457.75 C-246.7166712 449.13426877 -241.97606284 440.43722381 -237.3125 431.6875 C-232.51796715 422.69280781 -227.67455073 413.73205287 -222.69921875 404.8359375 C-219.23109414 398.63458455 -215.80518678 392.40988409 -212.375 386.1875 C-210.99092222 383.67706304 -209.60679545 381.16665309 -208.22265625 378.65625 C-207.87447845 378.02470001 -207.52630066 377.39315002 -207.16757202 376.74246216 C-204.73844856 372.33704326 -202.30557834 367.93370811 -199.87109375 363.53125 C-193.02835165 351.15353711 -186.22571576 338.75627775 -179.50439453 326.31201172 C-175.64768784 319.17764383 -171.73017268 312.079704 -167.78125 304.99609375 C-164.2341498 298.63116657 -160.70938388 292.25390283 -157.1875 285.875 C-156.84429718 285.25343018 -156.50109436 284.63186035 -156.14749146 283.99145508 C-150.88590103 274.45811354 -145.68055504 264.89553081 -140.50585938 255.31469727 C-137.04718567 248.91668798 -133.54725412 242.54388404 -130.00488281 236.19189453 C-125.41345541 227.95817669 -120.86372736 219.70150825 -116.31201172 211.44580078 C-115.61555991 210.18261718 -114.91910809 208.91943359 -114.22265625 207.65625 C-113.87446838 207.02467987 -113.52628052 206.39310974 -113.1675415 205.74240112 C-110.73842349 201.33700517 -108.30556734 196.93368822 -105.87109375 192.53125 C-99.02835165 180.15353711 -92.22571576 167.75627775 -85.50439453 155.31201172 C-81.64768784 148.17764383 -77.73017268 141.079704 -73.78125 133.99609375 C-70.2341498 127.63116657 -66.70938388 121.25390283 -63.1875 114.875 C-62.67269577 113.94264526 -62.67269577 113.94264526 -62.14749146 112.99145508 C-56.88590103 103.45811354 -51.68055504 93.89553081 -46.50585938 84.31469727 C-43.04718567 77.91668798 -39.54725412 71.54388404 -36.00488281 65.19189453 C-32.1071055 58.20208597 -28.23944105 51.19577377 -24.375 44.1875 C-23.69686076 42.95784393 -23.01871948 41.72818899 -22.34057617 40.49853516 C-20.94928458 37.97563938 -19.55811593 35.45267583 -18.16699219 32.9296875 C-14.8058116 26.83403251 -11.44275586 20.73941197 -8.07989502 14.64468384 C-6.36569657 11.53789898 -4.65160075 8.43105751 -2.9375 5.32421875 C-1.95833333 3.54947917 -0.97916667 1.77473958 0 0 Z " fill="#004AAD" transform="translate(649,300)"/>
<path d="M0 0 C0.66 0 1.32 0 2 0 C8.0234375 10.54101562 14.046875 21.08203125 20.0703125 31.62304688 C20.40103256 32.20180573 20.73175262 32.78056458 21.07249451 33.37686157 C22.06013747 35.10524057 23.04776895 36.83362614 24.03540039 38.56201172 C25.35482913 40.87097101 26.67431616 43.17989688 27.99389648 45.48876953 C31.00574214 50.75877614 34.01741924 56.02887595 37.02529907 61.30114746 C37.69853712 62.48059069 38.37234505 63.65970881 39.04672241 64.83850098 C40.71586207 67.75723828 42.37400986 70.68095641 44.01757812 73.61425781 C47.36550514 79.55925309 50.82276317 85.31385681 54.62109375 90.9765625 C64.90271949 106.51632586 64.90271949 106.51632586 65.06445312 112.30810547 C64.05785025 116.87129985 61.42578067 120.26909258 58.57666016 123.88232422 C55.58681907 127.89810024 53.34171205 132.36866923 50.9375 136.75 C49.81335357 138.72518675 48.686987 140.69911131 47.55859375 142.671875 C43.75499154 149.38548112 40.12112441 156.18701961 36.5 163 C31.94526696 171.56543943 27.31079049 180.07500405 22.5 188.5 C17.62969765 197.03074601 12.93196846 205.64432331 8.3125 214.3125 C3.51810698 223.30726518 -1.32545076 232.26794979 -6.30078125 241.1640625 C-9.76890586 247.36541545 -13.19481322 253.59011591 -16.625 259.8125 C-18.00907778 262.32293696 -19.39320455 264.83334691 -20.77734375 267.34375 C-21.12552155 267.97529999 -21.47369934 268.60684998 -21.83242798 269.25753784 C-24.26155144 273.66295674 -26.69442166 278.06629189 -29.12890625 282.46875 C-35.97164835 294.84646289 -42.77428424 307.24372225 -49.49560547 319.68798828 C-52.9537719 326.08511245 -56.45324267 332.45700678 -59.99511719 338.80810547 C-64.58654459 347.04182331 -69.13627264 355.29849175 -73.68798828 363.55419922 C-74.38444009 364.81738282 -75.08089191 366.08056641 -75.77734375 367.34375 C-76.12553162 367.97532013 -76.47371948 368.60689026 -76.8324585 369.25759888 C-79.26157651 373.66299483 -81.69443266 378.06631178 -84.12890625 382.46875 C-90.97164835 394.84646289 -97.77428424 407.24372225 -104.49560547 419.68798828 C-108.35231216 426.82235617 -112.26982732 433.920296 -116.21875 441.00390625 C-119.7658502 447.36883343 -123.29061612 453.74609717 -126.8125 460.125 C-127.32730423 461.05735474 -127.32730423 461.05735474 -127.85250854 462.00854492 C-133.11409897 471.54188646 -138.31944496 481.10446919 -143.49414062 490.68530273 C-146.95281433 497.08331202 -150.45274588 503.45611596 -153.99511719 509.80810547 C-158.58654459 518.04182331 -163.13627264 526.29849175 -167.68798828 534.55419922 C-168.38444009 535.81738282 -169.08089191 537.08056641 -169.77734375 538.34375 C-170.29962555 539.29110519 -170.29962555 539.29110519 -170.8324585 540.25759888 C-173.26157651 544.66299483 -175.69443266 549.06631178 -178.12890625 553.46875 C-184.97164835 565.84646289 -191.77428424 578.24372225 -198.49560547 590.68798828 C-201.9537719 597.08511245 -205.45324267 603.45700678 -208.99511719 609.80810547 C-213.58654459 618.04182331 -218.13627264 626.29849175 -222.68798828 634.55419922 C-223.38444009 635.81738282 -224.08089191 637.08056641 -224.77734375 638.34375 C-225.29962555 639.29110519 -225.29962555 639.29110519 -225.8324585 640.25759888 C-228.26157651 644.66299483 -230.69443266 649.06631178 -233.12890625 653.46875 C-239.97164835 665.84646289 -246.77428424 678.24372225 -253.49560547 690.68798828 C-256.9537719 697.08511245 -260.45324267 703.45700678 -263.99511719 709.80810547 C-268.58654459 718.04182331 -273.13627264 726.29849175 -277.68798828 734.55419922 C-278.38444009 735.81738282 -279.08089191 737.08056641 -279.77734375 738.34375 C-280.29962555 739.29110519 -280.29962555 739.29110519 -280.8324585 740.25759888 C-283.26157651 744.66299483 -285.69443266 749.06631178 -288.12890625 753.46875 C-294.42158827 764.85146912 -300.69300354 776.24409299 -306.875 787.6875 C-310.74467135 794.8478735 -314.62538528 802.00143529 -318.5625 809.125 C-318.95614746 809.84131592 -319.34979492 810.55763184 -319.75537109 811.2956543 C-320.1261377 811.9637915 -320.4969043 812.63192871 -320.87890625 813.3203125 C-321.1941626 813.89023926 -321.50941895 814.46016602 -321.83422852 815.04736328 C-322.21893311 815.6917334 -322.6036377 816.33610352 -323 817 C-323.40393478 818.01622437 -323.80786957 819.03244873 -324.2240448 820.07946777 C-325.86839783 822.49339156 -326.74623723 822.94771223 -329.64897251 823.54582024 C-333.30055103 823.7425793 -336.9271987 823.74220764 -340.58105469 823.68115234 C-341.99049304 823.67945959 -343.39993668 823.68041051 -344.80937195 823.68380737 C-348.63385682 823.68552946 -352.45721342 823.65024692 -356.28143597 823.60836363 C-360.27856925 823.57086415 -364.27572821 823.56733193 -368.27301025 823.56021118 C-375.84151883 823.54155988 -383.40950761 823.49231951 -390.97778726 823.43211424 C-399.59432937 823.36505755 -408.21089626 823.33206231 -416.82763433 823.30194163 C-434.55205096 823.23922031 -452.2759837 823.13368022 -470 823 C-468.73767254 820.62094832 -467.47396458 818.24264702 -466.20947266 815.86474609 C-465.85599258 815.19821518 -465.50251251 814.53168427 -465.13832092 813.84495544 C-462.03509634 808.01360662 -458.74247647 802.30761654 -455.375 796.625 C-450.48135627 788.30474644 -445.69199447 779.93556498 -441 771.5 C-435.86392529 762.2705555 -430.59787148 753.12762486 -425.25 744.01953125 C-421.07756041 736.8947181 -417.01504756 729.71453859 -413 722.5 C-407.86368611 713.27068598 -402.59787465 704.12763027 -397.25 695.01953125 C-393.07756041 687.8947181 -389.01504756 680.71453859 -385 673.5 C-379.86368611 664.27068598 -374.59787465 655.12763027 -369.25 646.01953125 C-365.07756041 638.8947181 -361.01504756 631.71453859 -357 624.5 C-351.86368611 615.27068598 -346.59787465 606.12763027 -341.25 597.01953125 C-337.07756041 589.8947181 -333.01504756 582.71453859 -329 575.5 C-323.86368611 566.27068598 -318.59787465 557.12763027 -313.25 548.01953125 C-309.07756041 540.8947181 -305.01504756 533.71453859 -301 526.5 C-295.86368611 517.27068598 -290.59787465 508.12763027 -285.25 499.01953125 C-281.07756041 491.8947181 -277.01504756 484.71453859 -273 477.5 C-267.86368611 468.27068598 -262.59787465 459.12763027 -257.25 450.01953125 C-253.07756041 442.8947181 -249.01504756 435.71453859 -245 428.5 C-239.86368611 419.27068598 -234.59787465 410.12763027 -229.25 401.01953125 C-225.07756041 393.8947181 -221.01504756 386.71453859 -217 379.5 C-211.86368611 370.27068598 -206.59787465 361.12763027 -201.25 352.01953125 C-197.07756041 344.8947181 -193.01504756 337.71453859 -189 330.5 C-183.86368611 321.27068598 -178.59787465 312.12763027 -173.25 303.01953125 C-169.07756041 295.8947181 -165.01504756 288.71453859 -161 281.5 C-155.86368611 272.27068598 -150.59787465 263.12763027 -145.25 254.01953125 C-141.07756041 246.8947181 -137.01504756 239.71453859 -133 232.5 C-127.86368611 223.27068598 -122.59787465 214.12763027 -117.25 205.01953125 C-113.07756041 197.8947181 -109.01504756 190.71453859 -105 183.5 C-99.86368611 174.27068598 -94.59787465 165.12763027 -89.25 156.01953125 C-85.07756041 148.8947181 -81.01504756 141.71453859 -77 134.5 C-71.86368611 125.27068598 -66.59787465 116.12763027 -61.25 107.01953125 C-57.07756041 99.8947181 -53.01504756 92.71453859 -49 85.5 C-43.86368611 76.27068598 -38.59787465 67.12763027 -33.25 58.01953125 C-29.0775487 50.89469812 -25.01587334 43.71409331 -21 36.5 C-16.13630232 27.78185636 -11.23523157 19.08682516 -6.25 10.4375 C-5.65316406 9.38949219 -5.05632812 8.34148437 -4.44140625 7.26171875 C-3.88839844 6.3078125 -3.33539062 5.35390625 -2.765625 4.37109375 C-2.03520996 3.1015686 -2.03520996 3.1015686 -1.29003906 1.80639648 C-0.86432617 1.21028564 -0.43861328 0.6141748 0 0 Z " fill="#004AAD" transform="translate(539,109)"/>
<path d="M0 0 C2.81165902 3.36080522 5.08596689 6.70470045 7.1796875 10.55078125 C8.06732788 12.16847412 8.06732788 12.16847412 8.97290039 13.81884766 C9.60059326 14.97175293 10.22828613 16.1246582 10.875 17.3125 C12.22146301 19.76642314 13.57273977 22.2176675 14.92578125 24.66796875 C15.26731735 25.28679932 15.60885345 25.90562988 15.96073914 26.54321289 C19.23525023 32.45839614 22.63346014 38.29816289 26.0625 44.125 C30.80809656 52.19651888 35.44726022 60.31813604 40 68.5 C44.575664 76.7220259 49.23570748 84.8858143 54 93 C59.37196793 102.14913289 64.59076525 111.37403131 69.75 120.64453125 C73.74964452 127.81353695 77.84348044 134.92092763 82 142 C87.37196793 151.14913289 92.59076525 160.37403131 97.75 169.64453125 C101.74964452 176.81353695 105.84348044 183.92092763 110 191 C115.37196793 200.14913289 120.59076525 209.37403131 125.75 218.64453125 C130.30616354 226.8110476 134.99963502 234.89030031 139.73461914 242.95410156 C144.64173008 251.33320545 149.40396622 259.78893454 154.11914062 268.27734375 C157.54826056 274.44399641 161.07011192 280.54137912 164.69946289 286.59277344 C166 289 166 289 166 291 C56.44 291 -53.12 291 -166 291 C-162.03071965 283.06143929 -158.01919836 275.41305816 -153.5 267.8125 C-147.8811172 258.27945779 -142.41031785 248.67506378 -137.05859375 238.98950195 C-136.00960755 237.09951271 -134.9435053 235.21889161 -133.85809994 233.34957981 C-132.53504022 230.96451213 -131.36717256 228.65406167 -130.24023533 226.1839056 C-125.283185 215.92931449 -125.283185 215.92931449 -119.65910149 213.64016914 C-115.52367801 213.14919872 -111.62456916 213.13837287 -107.47436523 213.29711914 C-105.91641146 213.30135637 -104.35842778 213.29896319 -102.80049133 213.29048157 C-98.59188822 213.28619505 -94.38976096 213.37404032 -90.18265796 213.47909093 C-85.77877287 213.57318361 -81.37472109 213.58169604 -76.96998596 213.59947205 C-68.63902506 213.64600419 -60.31103431 213.76895759 -51.98137861 213.91971439 C-42.49446802 214.08766996 -33.00741168 214.1699201 -23.51938331 214.24514592 C-4.01124126 214.40172771 15.49414021 214.66537516 35 215 C32.99479556 211.37585211 30.98778611 207.75271103 28.97926331 204.13040161 C28.29953406 202.90397686 27.62025659 201.67730157 26.94148254 200.4503479 C22.37524871 192.19734376 17.71956891 184.00564473 12.9375 175.875 C8.19564891 167.80126584 3.55278419 159.68194377 -1 151.5 C-6.13129964 142.27955056 -11.39166852 133.14508246 -16.73461914 124.04589844 C-21.64173008 115.66679455 -26.40396622 107.21106546 -31.11914062 98.72265625 C-31.65603516 97.75714844 -32.19292969 96.79164063 -32.74609375 95.796875 C-33.26929199 94.85005859 -33.79249023 93.90324219 -34.33154297 92.92773438 C-35.51377996 90.85319736 -36.74172467 88.80440573 -38.00048828 86.77539062 C-38.97671143 85.19274414 -38.97671143 85.19274414 -39.97265625 83.578125 C-40.574729 82.6284082 -41.17680176 81.67869141 -41.79711914 80.70019531 C-43.23152831 77.48027135 -43.14064444 76.29277306 -42 73 C-40.82348633 70.51831055 -40.82348633 70.51831055 -39.33203125 67.88671875 C-38.77572021 66.89849121 -38.21940918 65.91026367 -37.64624023 64.89208984 C-37.04110596 63.8345752 -36.43597168 62.77706055 -35.8125 61.6875 C-35.18609619 60.58100098 -34.55969238 59.47450195 -33.91430664 58.33447266 C-29.08336041 49.82703204 -24.16349765 41.37151594 -19.21142578 32.93408203 C-14.37844776 24.69055463 -9.66587 16.3823396 -4.99780273 8.04443359 C-4.48677002 7.13387207 -3.9757373 6.22331055 -3.44921875 5.28515625 C-2.99893311 4.47957275 -2.54864746 3.67398926 -2.0847168 2.84399414 C-1 1 -1 1 0 0 Z " fill="#004AAD" transform="translate(662,641)"/>
</svg>
