<svg xmlns="http://www.w3.org/2000/svg" xmlns:xlink="http://www.w3.org/1999/xlink" width="1080" zoomAndPan="magnify" viewBox="0 0 810 809.999993" height="1080" preserveAspectRatio="xMidYMid meet" version="1.0"><defs><clipPath id="14f5d32732"><path d="M 51.726562 81 L 759 81 L 759 699.226562 L 51.726562 699.226562 Z M 51.726562 81 " clip-rule="nonzero"/></clipPath><clipPath id="200b94bdd0"><path d="M 405 81 L 758.273438 699.226562 L 51.726562 699.226562 Z M 405 81 " clip-rule="nonzero"/></clipPath><clipPath id="55a1302fcf"><path d="M 103 92 L 545 92 L 545 810 L 103 810 Z M 103 92 " clip-rule="nonzero"/></clipPath><clipPath id="192b4f371e"><path d="M 492.222656 92.738281 L 544.3125 121.378906 L 155.636719 828.324219 L 103.546875 799.683594 Z M 492.222656 92.738281 " clip-rule="nonzero"/></clipPath><clipPath id="b5ee47411f"><path d="M 293.605469 382.644531 L 700 382.644531 L 700 738.078125 L 293.605469 738.078125 Z M 293.605469 382.644531 " clip-rule="nonzero"/></clipPath><clipPath id="1b32221514"><path d="M 496.707031 382.644531 L 699.8125 738.078125 L 293.605469 738.078125 Z M 496.707031 382.644531 " clip-rule="nonzero"/></clipPath><clipPath id="bb838a63ee"><path d="M 371.734375 480.519531 L 622 480.519531 L 622 699.226562 L 371.734375 699.226562 Z M 371.734375 480.519531 " clip-rule="nonzero"/></clipPath><clipPath id="38cdabc782"><path d="M 496.707031 480.519531 L 621.683594 699.226562 L 371.734375 699.226562 Z M 496.707031 480.519531 " clip-rule="nonzero"/></clipPath><clipPath id="c805cf50c6"><path d="M 400.019531 534.3125 L 523.710938 534.3125 L 523.710938 642.382812 L 400.019531 642.382812 Z M 400.019531 534.3125 " clip-rule="nonzero"/></clipPath><clipPath id="0a96c4c7c2"><path d="M 461.777344 534.3125 L 523.53125 642.382812 L 400.019531 642.382812 Z M 461.777344 534.3125 " clip-rule="nonzero"/></clipPath></defs><g clip-path="url(#14f5d32732)"><g clip-path="url(#200b94bdd0)"><path fill="#004aad" d="M 51.726562 81 L 759.308594 81 L 759.308594 699.226562 L 51.726562 699.226562 Z M 51.726562 81 " fill-opacity="1" fill-rule="nonzero"/></g></g><g clip-path="url(#55a1302fcf)"><g clip-path="url(#192b4f371e)"><path fill="#ffffff" d="M 492.222656 92.738281 L 544.3125 121.378906 L 155.667969 828.265625 L 103.578125 799.628906 Z M 492.222656 92.738281 " fill-opacity="1" fill-rule="nonzero"/></g></g><g clip-path="url(#b5ee47411f)"><g clip-path="url(#1b32221514)"><path fill="#ffffff" d="M 293.605469 382.644531 L 700.410156 382.644531 L 700.410156 738.078125 L 293.605469 738.078125 Z M 293.605469 382.644531 " fill-opacity="1" fill-rule="nonzero"/></g></g><g clip-path="url(#bb838a63ee)"><g clip-path="url(#38cdabc782)"><path fill="#004aad" d="M 371.734375 480.519531 L 622.050781 480.519531 L 622.050781 699.226562 L 371.734375 699.226562 Z M 371.734375 480.519531 " fill-opacity="1" fill-rule="nonzero"/></g></g><g clip-path="url(#c805cf50c6)"><g clip-path="url(#0a96c4c7c2)"><path fill="#ffffff" d="M 400.019531 534.3125 L 523.710938 534.3125 L 523.710938 642.382812 L 400.019531 642.382812 Z M 400.019531 534.3125 " fill-opacity="1" fill-rule="nonzero"/></g></g></svg>